<svg id="Layer_1" data-name="Layer 1" xmlns="http://www.w3.org/2000/svg" width="230mm" height="240mm" viewBox="0 0 651.97 680.31"><defs><style>.cls-1{fill:#f1a7c5;}.cls-2{fill:#f0a4c3;}.cls-3{fill:#f0a1c0;}.cls-4{fill:#ef9ebd;}.cls-5{fill:#ef9abb;}.cls-6{fill:#ee97b8;}.cls-7{fill:#ee94b5;}.cls-8{fill:#ed90b3;}.cls-9{fill:#ed8db0;}.cls-10{fill:#ed8aad;}.cls-11{fill:#ec86ab;}.cls-12{fill:#ec83a8;}.cls-13{fill:#eb80a6;}.cls-14{fill:#eb7ca3;}.cls-15{fill:#ea79a0;}.cls-16{fill:#ea759e;}.cls-17{fill:#e9719b;}.cls-18{fill:#e96e99;}.cls-19{fill:#e86a96;}.cls-20{fill:#e86694;}.cls-21{fill:#e86391;}.cls-22{fill:#e75f8f;}.cls-23{fill:#e75e8e;}.cls-24{fill:#e75d8e;}.cls-25{fill:#e75c8e;}.cls-26{fill:#e75b8d;}.cls-27{fill:#e75a8d;}.cls-28{fill:#e7598c;}.cls-29{fill:#e7588c;}.cls-30{fill:#e7578b;}.cls-31{fill:#e7568b;}.cls-32{fill:#e7558a;}.cls-33{fill:#e7538a;}.cls-34{fill:#e7528a;}.cls-35{fill:#e75189;}.cls-36{fill:#e75089;}.cls-37{fill:#e74f88;}.cls-38{fill:#e74e88;}.cls-39{fill:#e74d87;}.cls-40{fill:#e74c87;}.cls-41{fill:#e64b87;}.cls-42{fill:#e64a86;}.cls-43{fill:#e64886;}.cls-44{fill:#d53b6a;}.cls-45{fill:#ffde00;}</style></defs><path class="cls-1" d="M132.75,185.26c48.88,110.09-106.08,93.65-35.18-3.73-70.9,97.38-134.14-45-14.36-32.33C-36.57,136.49,55.15,10.51,104,120.6,55.15,10.51,210.11,27,139.21,124.34c70.9-97.39,134.14,45,14.36,32.32C273.35,169.37,181.63,295.35,132.75,185.26Z"/><path class="cls-2" d="M132.31,184.29c47.4,106.8-102.91,90.88-34.12-3.61C29.4,275.17-31.93,137,84.27,149.32-31.93,137,57.06,14.78,104.47,121.57,57.06,14.78,207.38,30.7,138.59,125.19c68.79-94.49,130.12,43.66,13.92,31.36C268.71,168.85,179.71,291.09,132.31,184.29Z"/><path class="cls-3" d="M131.87,183.33c45.93,103.5-99.74,88.09-33.06-3.5-66.68,91.59-126.09-42.3-13.49-30.39C-27.28,137.53,59,19,104.9,122.54,59,19,204.65,34.44,138,126c66.68-91.6,126.09,42.3,13.49,30.39C264.06,168.34,177.8,286.83,131.87,183.33Z"/><path class="cls-4" d="M131.44,182.36c44.44,100.21-96.59,85.32-32-3.38-64.58,88.7-122.06-40.93-13.05-29.43-109-11.5-25.48-126.25,19-26-44.44-100.21,96.59-85.32,32,3.38,64.58-88.7,122.06,40.93,13.05,29.42C259.41,167.82,175.88,282.57,131.44,182.36Z"/><path class="cls-5" d="M131,181.39c43,96.91-93.42,82.54-30.95-3.26-62.47,85.8-118-39.57-12.62-28.46C-18,138.56,62.82,27.56,105.78,124.47c-43-96.91,93.42-82.54,30.95,3.27,62.47-85.81,118,39.56,12.62,28.45C254.77,167.3,174,278.3,131,181.39Z"/><path class="cls-6" d="M130.57,180.42C172,274,40.3,260.19,100.66,177.28c-60.36,82.91-114-38.2-12.17-27.49-101.83-10.71-23.75-118,17.72-24.35-41.47-93.62,90.26-79.76,29.9,3.15,60.36-82.91,114,38.2,12.18,27.49C250.12,166.79,172,274,130.57,180.42Z"/><path class="cls-7" d="M130.13,179.46c40,90.32-87.1,77-28.85-3-58.25,80-110-36.83-11.74-26.52C-8.7,139.6,66.66,36.09,106.65,126.41c-40-90.32,87.1-77,28.85,3,58.25-80,110,36.83,11.74,26.52C245.48,166.27,170.12,269.78,130.13,179.46Z"/><path class="cls-8" d="M129.7,178.49c38.5,87-83.94,74.21-27.8-2.91C45.76,252.7-4,140.11,90.6,150c-94.65-9.91-22-109.67,16.48-22.64-38.5-87,83.94-74.21,27.8,2.91,56.14-77.12,106,35.46,11.3,25.55C240.83,165.75,168.2,265.52,129.7,178.49Z"/><path class="cls-9" d="M129.26,177.52c37,83.74-80.78,71.43-26.74-2.79C48.48,249,.59,140.63,91.65,150.14.59,140.63,70.5,44.61,107.52,128.34c-37-83.73,80.78-71.43,26.74,2.8,54-74.23,101.93,34.09,10.87,24.59C236.19,165.23,166.28,261.26,129.26,177.52Z"/><path class="cls-10" d="M128.83,176.55c35.53,80.44-77.62,68.66-25.69-2.67-51.93,71.33-97.9-32.73-10.43-23.62C5.24,141.15,72.42,48.87,108,129.31,72.42,48.87,185.57,60.66,133.64,132c51.93-71.33,97.9,32.73,10.43,23.62C231.54,164.72,164.36,257,128.83,176.55Z"/><path class="cls-11" d="M128.39,175.59c34.05,77.14-74.45,65.87-24.63-2.56-49.82,68.43-93.88-31.36-10-22.65-83.88-8.71-19.42-97.25,14.63-20.1-34-77.15,74.45-65.88,24.63,2.56,49.82-68.44,93.88,31.36,10,22.65C226.9,164.2,162.44,252.73,128.39,175.59Z"/><path class="cls-12" d="M128,174.62c32.57,73.85-71.29,63.1-23.57-2.44-47.72,65.54-89.85-30-9.57-21.69-80.28-8.31-18.55-93.09,14-19.24-32.57-73.85,71.29-63.1,23.57,2.44,47.72-65.54,89.85,30,9.57,21.68C222.25,163.68,160.52,248.47,128,174.62Z"/><path class="cls-13" d="M127.52,173.65C158.6,244.21,59.39,234,105,171.33,59.39,234,19.17,142.7,95.87,150.61c-76.7-7.91-17.7-89,13.39-18.4-31.09-70.55,68.13-60.32,22.52,2.33,45.61-62.65,85.82,28.63,9.13,20.72C217.6,163.17,158.6,244.21,127.52,173.65Z"/><path class="cls-14" d="M127.08,172.68c29.61,67.27-65,57.55-21.46-2.2-43.5,59.75-81.8-27.26-8.7-19.75-73.1-7.51-16.83-84.81,12.78-17.55-29.61-67.26,65-57.54,21.46,2.21,43.5-59.75,81.8,27.26,8.7,19.75C213,162.65,156.69,240,127.08,172.68Z"/><path class="cls-15" d="M126.65,171.72c28.12,64-61.81,54.76-20.42-2.09-41.39,56.85-77.76-25.9-8.25-18.79-69.51-7.11-16-80.66,12.15-16.69-28.12-64,61.81-54.77,20.41,2.09,41.4-56.86,77.77,25.89,8.26,18.78C208.31,162.13,154.77,235.68,126.65,171.72Z"/><path class="cls-16" d="M126.21,170.75c26.64,60.67-58.64,52-19.36-2C67.57,222.74,33.11,144.25,99,151c-65.92-6.71-15.1-76.52,11.54-15.84-26.64-60.68,58.64-52,19.36,2,39.28-54,73.74,24.52,7.82,17.81C203.67,161.61,152.85,231.42,126.21,170.75Z"/><path class="cls-17" d="M125.78,169.78c25.15,57.38-55.48,49.21-18.31-1.85C70.3,219,37.76,144.77,100.09,151.08c-62.33-6.31-14.24-72.37,10.91-15-25.15-57.37,55.48-49.21,18.31,1.86,37.17-51.07,69.71,23.16,7.38,16.85C199,161.1,150.93,227.16,125.78,169.78Z"/><path class="cls-18" d="M125.34,168.81C149,222.9,73,215.25,108.09,167.08c-35.07,48.17-65.69-21.8-7-15.88C42.4,145.28,87.77,83,111.44,137.05,87.77,83,163.76,90.62,128.69,138.79c35.07-48.17,65.69,21.79,6.95,15.88C194.38,160.58,149,222.9,125.34,168.81Z"/><path class="cls-19" d="M124.9,167.85c22.19,50.79-49.15,43.65-16.19-1.62-33,45.27-61.66-20.43-6.51-14.92C47.05,145.8,89.69,87.23,111.87,138c-22.18-50.79,49.16-43.66,16.2,1.62,33-45.28,61.66,20.42,6.51,14.91C189.73,160.06,147.09,218.64,124.9,167.85Z"/><path class="cls-20" d="M124.47,166.88c20.7,47.49-46,40.88-15.14-1.5-30.86,42.38-57.64-19.06-6.08-13.95-51.56-5.11-11.64-59.94,9.06-12.44-20.7-47.5,46-40.88,15.14,1.5,30.85-42.38,57.64,19.06,6.08,13.94C185.09,159.55,145.17,214.37,124.47,166.88Z"/><path class="cls-21" d="M124,165.91c19.22,44.2-42.83,38.1-14.08-1.38-28.75,39.48-53.61-17.69-5.65-13-48-4.71-10.77-55.8,8.45-11.6-19.22-44.2,42.83-38.1,14.08,1.39,28.75-39.49,53.61,17.69,5.64,13C180.44,159,143.25,210.11,124,165.91Z"/><path class="cls-22" d="M123.6,164.94c17.73,40.91-39.67,35.33-13-1.26-26.64,36.59-49.59-16.33-5.21-12C61,147.35,95.45,100,113.18,140.92c-17.73-40.9,39.67-35.32,13,1.27,26.64-36.59,49.59,16.32,5.21,12C175.8,158.51,141.33,205.85,123.6,164.94Z"/><path class="cls-23" d="M123.51,164.73c17.42,40.19-39,34.71-12.81-1.24-26.17,35.95-48.71-16-5.11-11.8-43.6-4.24-9.74-50.74,7.68-10.56-17.42-40.18,39-34.7,12.8,1.25,26.18-35.95,48.71,16,5.12,11.8C174.78,158.41,140.93,204.92,123.51,164.73Z"/><path class="cls-24" d="M123.41,164.52c17.12,39.47-38.27,34.08-12.57-1.22-25.7,35.3-47.83-15.75-5-11.59-42.81-4.16-9.57-49.83,7.55-10.37-17.12-39.46,38.27-34.08,12.57,1.23,25.7-35.31,47.83,15.75,5,11.58C173.77,158.32,140.53,204,123.41,164.52Z"/><path class="cls-25" d="M123.32,164.31c16.8,38.75-37.57,33.46-12.34-1.2-25.23,34.66-47-15.46-4.93-11.38-42-4.08-9.39-48.92,7.41-10.17-16.8-38.75,37.57-33.46,12.34,1.19,25.23-34.65,47,15.47,4.93,11.38C172.76,158.22,140.12,203.06,123.32,164.31Z"/><path class="cls-26" d="M123.23,164.1c16.49,38-36.88,32.84-12.11-1.18-24.77,34-46.09-15.17-4.84-11.16-41.25-4-9.22-48,7.27-10-16.49-38,36.88-32.84,12.11,1.17,24.77-34,46.09,15.18,4.84,11.17C171.75,158.12,139.72,202.12,123.23,164.1Z"/><path class="cls-27" d="M123.14,163.89c16.17,37.3-36.18,32.21-11.88-1.16C87,196.1,66,147.84,106.51,151.78c-40.47-3.94-9-47.11,7.13-9.8-16.17-37.31,36.18-32.22,11.88,1.15,24.3-33.37,45.22,14.89,4.75,11C170.74,158,139.31,201.19,123.14,163.89Z"/><path class="cls-28" d="M123.05,163.68c15.86,36.58-35.48,31.59-11.66-1.14-23.82,32.73-44.34-14.6-4.65-10.74-39.69-3.86-8.87-46.2,7-9.61-15.86-36.59,35.48-31.6,11.66,1.13,23.82-32.73,44.34,14.6,4.65,10.75C169.73,157.92,138.91,200.26,123.05,163.68Z"/><path class="cls-29" d="M123,163.46c15.55,35.87-34.79,31-11.43-1.11C88.17,194.44,68.06,148,107,151.82c-38.9-3.78-8.69-45.28,6.86-9.42-15.55-35.86,34.79-31,11.43,1.11,23.36-32.08,43.47,14.31,4.57,10.53C168.72,157.82,138.51,199.33,123,163.46Z"/><path class="cls-30" d="M122.86,163.25c15.24,35.15-34.08,30.35-11.19-1.08-22.89,31.43-42.6-14-4.48-10.33-38.12-3.7-8.51-44.37,6.73-9.23-15.24-35.14,34.08-30.35,11.19,1.09,22.89-31.44,42.6,14,4.48,10.32C167.71,157.73,138.1,198.4,122.86,163.25Z"/><path class="cls-31" d="M122.77,163c14.93,34.43-33.38,29.73-11-1.06-22.42,30.79-41.73-13.74-4.39-10.11-37.34-3.63-8.34-43.47,6.59-9.05-14.93-34.42,33.38-29.73,11,1.07,22.42-30.8,41.73,13.74,4.39,10.11C166.7,157.63,137.7,197.47,122.77,163Z"/><path class="cls-32" d="M122.68,162.83c14.62,33.71-32.69,29.11-10.74-1-22,30.15-40.85-13.45-4.29-9.9-36.56-3.55-8.17-42.56,6.45-8.85-14.62-33.71,32.69-29.11,10.74,1,21.95-30.15,40.85,13.45,4.29,9.9C165.69,157.53,137.3,196.54,122.68,162.83Z"/><path class="cls-33" d="M122.59,162.62c14.3,33-32,28.49-10.51-1-21.48,29.51-40-13.17-4.2-9.69-35.78-3.48-8-41.65,6.31-8.66-14.3-33,32-28.49,10.51,1,21.48-29.51,40,13.16,4.2,9.68C164.68,157.43,136.89,195.6,122.59,162.62Z"/><path class="cls-34" d="M122.5,162.41c14,32.26-31.29,27.86-10.28-1-21,28.86-39.11-12.88-4.11-9.48-35-3.4-7.82-40.74,6.17-8.47-14-32.27,31.29-27.87,10.28,1,21-28.87,39.11,12.87,4.11,9.47C163.67,157.33,136.49,194.67,122.5,162.41Z"/><path class="cls-35" d="M122.41,162.2c13.67,31.54-30.6,27.24-10-1-20.55,28.22-38.24-12.59-4-9.26-34.22-3.33-7.64-39.84,6-8.29-13.67-31.55,30.6-27.24,10,1,20.55-28.22,38.24,12.59,4,9.26C162.66,157.24,136.08,193.74,122.41,162.2Z"/><path class="cls-36" d="M122.31,162c13.37,30.83-29.89,26.63-9.82-.95-20.07,27.58-37.36-12.3-3.92-9.05-33.44-3.25-7.47-38.93,5.89-8.1-13.36-30.83,29.9-26.62,9.83,1,20.07-27.58,37.36,12.3,3.92,9C161.65,157.14,135.68,192.81,122.31,162Z"/><path class="cls-37" d="M122.22,161.77c13.06,30.11-29.19,26-9.59-.93-19.6,26.93-36.49-12-3.83-8.84-32.66-3.17-7.3-38,5.76-7.91-13.06-30.1,29.19-26,9.59.93,19.6-26.93,36.49,12,3.83,8.84C160.64,157,135.28,191.88,122.22,161.77Z"/><path class="cls-38" d="M122.13,161.56c12.74,29.39-28.5,25.38-9.36-.91C93.63,186.94,77.15,148.92,109,152c-31.88-3.1-7.12-37.1,5.62-7.72-12.74-29.38,28.5-25.37,9.36.91,19.14-26.28,35.62,11.73,3.74,8.63C159.63,156.94,134.87,191,122.13,161.56Z"/><path class="cls-39" d="M122,161.35c12.43,28.67-27.8,24.76-9.13-.89-18.67,25.65-34.75-11.44-3.65-8.41-31.1-3-7-36.2,5.48-7.54-12.43-28.66,27.8-24.75,9.13.89,18.67-25.64,34.75,11.44,3.65,8.42C158.62,156.84,134.47,190,122,161.35Z"/><path class="cls-40" d="M122,161.14c12.11,28-27.11,24.13-8.9-.87-18.21,25-33.88-11.15-3.56-8.2-30.32-2.95-6.78-35.29,5.34-7.34-12.12-27.95,27.1-24.14,8.9.86,18.2-25,33.88,11.15,3.56,8.21C157.61,156.74,134.06,189.09,122,161.14Z"/><path class="cls-41" d="M121.86,160.93c11.8,27.22-26.41,23.51-8.68-.85-17.73,24.36-33-10.86-3.46-8-29.54-2.87-6.6-34.38,5.2-7.15-11.8-27.23,26.41-23.52,8.68.84,17.73-24.36,33,10.87,3.46,8C156.6,156.65,133.66,188.15,121.86,160.93Z"/><path class="cls-42" d="M121.76,160.72c11.5,26.5-25.7,22.89-8.44-.82-17.26,23.71-32.13-10.58-3.37-7.79-28.76-2.79-6.43-33.47,5.06-7-11.49-26.51,25.71-22.89,8.45.82,17.26-23.71,32.13,10.58,3.37,7.78C155.59,156.55,133.26,187.22,121.76,160.72Z"/><path class="cls-43" d="M121.67,160.51c11.18,25.78-25,22.26-8.21-.8-16.8,23.06-31.26-10.29-3.29-7.58-28-2.71-6.24-32.56,4.94-6.77-11.18-25.79,25-22.27,8.21.8,16.8-23.07,31.26,10.29,3.28,7.57C154.58,156.45,132.85,186.29,121.67,160.51Z"/><path class="cls-44" d="M112.27,210.3c7.88-73.9,21.12-63.83-45.91-34.94,67-28.89,65.26-12.36,6.12-57.36,59.14,45,44.15,51.47,52-22.44-7.88,73.91-21.12,63.84,45.91,34.94-67,28.9-65.26,12.36-6.12,57.37C105.16,142.86,120.15,136.4,112.27,210.3Z"/><path class="cls-45" d="M136.08,164.63c-10.56-7.49-18.13-4.25-19.48,8.34,1.35-12.59-5.37-17.36-17.27-12.26,11.9-5.1,12.75-13.11,2.2-20.6,10.55,7.49,18.12,4.25,19.47-8.34-1.35,12.59,5.37,17.36,17.27,12.26C126.37,149.13,125.52,157.14,136.08,164.63Z"/><path class="cls-1" d="M272.69,553.06C296.82,755.68,56.86,652,218.22,529.52,56.86,652,25.64,389.85,211.13,470c-185.49-80.17,23.26-238.57,47.39-36-24.13-202.61,215.83-98.9,54.47,23.55,161.36-122.45,192.57,139.66,7.08,59.49C505.56,597.27,296.82,755.68,272.69,553.06Z"/><path class="cls-2" d="M272.47,551.28c23.37,196.54-209.41,96-52.84-22.83C63.06,647.26,32.83,393,212.77,470.74c-179.94-77.74,22.6-231.44,46-34.89-23.37-196.55,209.41-96,52.84,22.82,156.57-118.8,186.8,135.45,6.86,57.72C498.38,594.12,295.84,747.82,272.47,551.28Z"/><path class="cls-3" d="M272.25,549.49C294.86,740,69.27,642.55,221,527.38,69.27,642.55,40,396.15,214.4,471.45,40,396.15,236.35,247.16,259,437.63c-22.61-190.47,203-93.06,51.21,22.11,151.77-115.17,181,131.23,6.64,55.93C491.2,591,294.86,740,272.25,549.49Z"/><path class="cls-4" d="M272,547.71c21.87,184.4-196.55,90.13-49.57-21.4-147,111.53-175.26-127-6.42-54.14C47.19,399.3,237.32,255,259.18,439.41c-21.86-184.39,196.56-90.13,49.58,21.4,147-111.53,175.26,127,6.42,54.15C484,587.83,293.89,732.11,272,547.71Z"/><path class="cls-5" d="M271.8,545.93c21.11,178.32-190.12,87.2-48-20.69C81.68,633.13,54.37,402.45,217.66,472.88c-163.29-70.43,20.64-210,41.75-31.68C238.3,262.88,449.53,354,307.35,461.88c142.18-107.89,169.49,122.8,6.2,52.36C476.84,584.68,292.91,724.25,271.8,545.93Z"/><path class="cls-6" d="M271.58,544.14c20.35,172.25-183.7,84.28-46.32-20-137.38,104.24-163.71-118.58-6-50.59-157.74-68,20-202.86,40.34-30.61C239.27,270.73,443.33,358.7,306,463c137.38-104.25,163.71,118.58,6,50.58C469.66,581.53,291.93,716.39,271.58,544.14Z"/><path class="cls-7" d="M271.36,542.36c19.6,166.17-177.27,81.36-44.69-19.25-132.58,100.61-157.94-114.37-5.75-48.8-152.19-65.57,19.33-195.72,38.93-29.54-19.6-166.18,177.27-81.36,44.69,19.25,132.58-100.61,157.93,114.36,5.75,48.8C462.47,578.38,291,708.53,271.36,542.36Z"/><path class="cls-8" d="M271.14,540.58C290,700.68,100.29,619,228.08,522c-127.79,97-152.16-110.15-5.53-47-146.63-63.13,18.68-188.57,37.52-28.47-18.84-160.1,170.84-78.43,43.06,18.54,127.78-97,152.16,110.14,5.53,47C455.29,575.23,290,700.68,271.14,540.58Z"/><path class="cls-9" d="M270.92,538.79C289,692.82,106.5,614.3,229.49,521,106.5,614.3,83.1,415,224.18,475.74c-141.08-60.7,18-181.43,36.11-27.41-18.09-154,164.42-75.5,41.43,17.83,123-93.33,146.39,105.92,5.31,45.23C448.11,572.08,289,692.82,270.92,538.79Z"/><path class="cls-10" d="M270.69,537c17.34,148-158,72.58-39.79-17.11-118.2,89.69-140.62-101.71-5.09-43.45-135.53-58.26,17.37-174.29,34.7-26.33-17.33-148,158-72.58,39.8,17.11,118.19-89.69,140.62,101.71,5.09,43.44C440.93,568.94,288,685,270.69,537Z"/><path class="cls-11" d="M270.47,535.23c16.58,141.87-151.56,69.65-38.16-16.4-113.4,86-134.85-97.49-4.87-41.66-130-55.83,16.72-167.15,33.3-25.27C244.16,310,412.3,382.24,298.9,468.29c113.4-86.05,134.85,97.5,4.87,41.67C433.75,565.79,287.05,677.1,270.47,535.23Z"/><path class="cls-12" d="M270.25,533.44c15.83,135.81-145.13,66.73-36.54-15.68-108.59,82.41-129.07-93.27-4.64-39.88-124.43-53.39,16.06-160,31.89-24.2-15.83-135.8,145.13-66.73,36.53,15.68,108.6-82.41,129.07,93.28,4.65,39.88C426.56,562.64,286.08,669.25,270.25,533.44Z"/><path class="cls-13" d="M270,531.66c15.07,129.73-138.71,63.8-34.91-15-103.8,78.77-123.29-89.06-4.42-38.09-118.87-51,15.41-152.87,30.48-23.13-15.07-129.74,138.71-63.81,34.91,15,103.8-78.77,123.29,89.06,4.42,38.1C419.38,559.49,285.1,661.39,270,531.66Z"/><path class="cls-14" d="M269.81,529.87c14.31,123.66-132.28,60.88-33.28-14.25-99,75.13-117.52-84.84-4.2-36.31C119,430.78,247.09,333.59,261.4,457.25c-14.31-123.66,132.28-60.88,33.28,14.25,99-75.13,117.52,84.84,4.2,36.31C412.2,556.34,284.12,653.53,269.81,529.87Z"/><path class="cls-15" d="M269.59,528.09c13.56,117.59-125.86,57.95-31.65-13.53C143.73,586,126.19,433.93,234,480c-107.77-46.1,14.1-138.58,27.66-21-13.56-117.58,125.86-57.95,31.65,13.54,94.21-71.49,111.75,80.62,4,34.53C405,553.19,283.15,645.68,269.59,528.09Z"/><path class="cls-16" d="M269.36,526.31c12.81,111.51-119.42,55-30-12.82-89.41,67.85-106-76.41-3.76-32.75C133.37,437.08,249,349.31,261.84,460.82c-12.8-111.51,119.43-55,30,12.82,89.41-67.85,106,76.41,3.76,32.74C397.84,550.05,282.17,637.82,269.36,526.31Z"/><path class="cls-17" d="M269.14,524.52c12.05,105.44-113,52.11-28.38-12.1-84.62,64.21-100.21-72.19-3.54-31-96.67-41.23,12.79-124.3,24.85-18.86-12.06-105.44,113-52.1,28.38,12.11,84.62-64.21,100.21,72.19,3.54,31C390.66,546.9,281.19,630,269.14,524.52Z"/><path class="cls-18" d="M268.92,522.74c11.3,99.36-106.57,49.18-26.75-11.39-79.82,60.57-94.44-68-3.32-29.18C147.73,443.38,251,365,262.29,464.38,251,365,368.86,415.21,289,475.78c79.82-60.57,94.43,68,3.32,29.17C383.47,543.75,280.22,622.1,268.92,522.74Z"/><path class="cls-19" d="M268.7,521c10.54,93.29-100.15,46.25-25.13-10.68-75,56.93-88.65-63.76-3.09-27.39-85.56-36.37,11.49-110,22-16.72-10.54-93.29,100.15-46.25,25.12,10.68,75-56.93,88.66,63.75,3.1,27.39C376.29,540.6,279.24,614.25,268.7,521Z"/><path class="cls-20" d="M268.48,519.17c9.78,87.22-93.72,43.33-23.5-10-70.22,53.29-82.88-59.54-2.87-25.61-80-33.93,10.83-102.86,20.62-15.65-9.79-87.21,93.72-43.33,23.5,10,70.22-53.29,82.88,59.54,2.87,25.61C369.11,537.45,278.26,606.39,268.48,519.17Z"/><path class="cls-21" d="M268.26,517.39c9,81.14-87.3,40.4-21.87-9.25-65.43,49.65-77.11-55.32-2.65-23.83-74.46-31.49,10.18-95.72,19.21-14.58-9-81.14,87.3-40.4,21.87,9.25,65.43-49.65,77.11,55.32,2.65,23.83C361.93,534.3,277.29,598.53,268.26,517.39Z"/><path class="cls-22" d="M268,515.61c8.28,75.06-80.86,37.47-20.23-8.54-60.63,46-71.34-51.1-2.43-22-68.91-29.06,9.53-88.58,17.8-13.51C254.9,396.45,344,434,283.41,480.05c60.63-46,71.34,51.1,2.43,22.05C354.75,531.15,276.31,590.67,268,515.61Z"/><path class="cls-23" d="M268,515.22c8.13,73.75-79.44,36.81-19.88-8.38C188.55,552,178,456.63,245.73,485.18c-67.7-28.55,9.35-87,17.49-13.27-8.14-73.75,79.44-36.82,19.88,8.38,59.56-45.2,70.08,50.2,2.38,21.66C353.18,530.49,276.12,589,268,515.22Z"/><path class="cls-24" d="M268,514.83c8,72.43-78,36.16-19.52-8.23-58.5,44.39-68.83-49.31-2.35-21.27-66.48-28,9.19-85.46,17.18-13-8-72.42,78-36.15,19.52,8.24,58.5-44.39,68.83,49.3,2.35,21.27C351.61,529.83,275.94,587.26,268,514.83Z"/><path class="cls-25" d="M267.91,514.44c7.84,71.11-76.6,35.5-19.17-8.08-57.43,43.58-67.57-48.41-2.3-20.88-65.27-27.53,9-83.9,16.86-12.8-7.84-71.1,76.6-35.5,19.17,8.09,57.43-43.59,67.57,48.4,2.3,20.88C350,529.17,275.75,585.55,267.91,514.44Z"/><path class="cls-26" d="M267.86,514.05c7.7,69.79-75.17,34.84-18.81-7.93-56.36,42.77-66.31-47.5-2.26-20.49-64-27,8.86-82.34,16.55-12.56-7.69-69.78,75.18-34.84,18.82,7.93,56.36-42.77,66.31,47.51,2.25,20.49C348.47,528.51,275.56,583.84,267.86,514.05Z"/><path class="cls-27" d="M267.82,513.67c7.55,68.46-73.75,34.18-18.45-7.79-55.3,42-65.07-46.6-2.22-20.1-62.85-26.5,8.69-80.78,16.24-12.32-7.55-68.46,73.75-34.18,18.45,7.78,55.3-42,65.06,46.61,2.22,20.1C346.9,527.85,275.37,582.13,267.82,513.67Z"/><path class="cls-28" d="M267.78,513.28c7.4,67.14-72.33,33.52-18.1-7.63-54.23,41.15-63.81-45.71-2.17-19.72-61.64-26,8.52-79.23,15.92-12.08-7.4-67.15,72.33-33.52,18.1,7.63,54.23-41.15,63.8,45.71,2.17,19.71C345.33,527.19,275.18,580.42,267.78,513.28Z"/><path class="cls-29" d="M267.74,512.89c7.25,65.82-70.91,32.86-17.75-7.48-53.16,40.34-62.55-44.81-2.13-19.33-60.42-25.48,8.36-77.67,15.61-11.85-7.25-65.82,70.91-32.86,17.75,7.49,53.16-40.35,62.55,44.8,2.13,19.32C343.77,526.52,275,578.71,267.74,512.89Z"/><path class="cls-30" d="M267.69,512.5c7.11,64.5-69.48,32.2-17.38-7.33-52.1,39.53-61.3-43.91-2.09-18.94-59.21-25,8.18-76.11,15.3-11.61-7.12-64.5,69.48-32.2,17.38,7.33,52.1-39.53,61.3,43.91,2.09,18.94C342.2,525.86,274.8,577,267.69,512.5Z"/><path class="cls-31" d="M267.65,512.11c7,63.18-68.06,31.55-17-7.18-51,38.73-60-43-2.05-18.55-58-24.46,8-74.55,15-11.37-7-63.18,68.06-31.54,17,7.18,51-38.72,60,43,2,18.55C340.63,525.2,274.62,575.29,267.65,512.11Z"/><path class="cls-32" d="M267.61,511.73c6.82,61.85-66.64,30.88-16.68-7-50,37.91-58.78-42.11-2-18.17-56.78-23.94,7.85-73,14.67-11.13-6.82-61.86,66.64-30.88,16.68,7,50-37.91,58.78,42.11,2,18.16C339.06,524.54,274.43,573.58,267.61,511.73Z"/><path class="cls-33" d="M267.56,511.34c6.68,60.53-65.21,30.22-16.31-6.88-48.9,37.1-57.53-41.21-2-17.78-55.57-23.43,7.68-71.43,14.35-10.89-6.67-60.54,65.22-30.23,16.32,6.88,48.9-37.11,57.53,41.21,2,17.77C337.49,523.88,274.24,571.87,267.56,511.34Z"/><path class="cls-34" d="M267.52,511c6.53,59.22-63.79,29.56-16-6.73-47.83,36.29-56.27-40.31-1.92-17.39-54.35-22.92,7.52-69.87,14.05-10.66-6.53-59.21,63.79-29.56,16,6.73,47.83-36.29,56.27,40.32,1.92,17.39C335.92,523.22,274.05,570.17,267.52,511Z"/><path class="cls-35" d="M267.48,510.56c6.38,57.9-62.37,28.91-15.61-6.58-46.76,35.49-55-39.41-1.87-17-53.14-22.41,7.35-68.31,13.73-10.42-6.38-57.89,62.36-28.9,15.61,6.58,46.75-35.48,55,39.41,1.87,17C334.35,522.55,273.86,568.46,267.48,510.56Z"/><path class="cls-36" d="M267.44,510.18c6.23,56.57-60.95,28.24-15.25-6.44-45.7,34.68-53.77-38.51-1.84-16.61-51.93-21.9,7.18-66.75,13.42-10.18-6.24-56.57,60.94-28.24,15.25,6.43,45.69-34.67,53.76,38.51,1.83,16.61C332.78,521.89,273.67,566.75,267.44,510.18Z"/><path class="cls-37" d="M267.39,509.79c6.1,55.25-59.52,27.58-14.89-6.28-44.63,33.86-52.51-37.62-1.79-16.23-50.72-21.39,7-65.19,13.11-9.94-6.1-55.25,59.51-27.59,14.89,6.28,44.62-33.87,52.51,37.61,1.79,16.22C331.22,521.23,273.49,565,267.39,509.79Z"/><path class="cls-38" d="M267.35,509.4c5.95,53.93-58.1,26.92-14.54-6.13-43.56,33.05-51.25-36.71-1.74-15.84-49.51-20.87,6.84-63.63,12.79-9.7-5.95-53.93,58.09-26.93,14.54,6.13,43.55-33.06,51.25,36.71,1.74,15.83C329.65,520.57,273.3,563.33,267.35,509.4Z"/><path class="cls-39" d="M267.31,509c5.8,52.61-56.67,26.27-14.18-6-42.49,32.25-50-35.81-1.71-15.45-48.29-20.36,6.68-62.08,12.48-9.47-5.8-52.61,56.67-26.26,14.18,6,42.49-32.24,50,35.82,1.71,15.45C328.08,519.91,273.11,561.62,267.31,509Z"/><path class="cls-40" d="M267.26,508.62c5.66,51.29-55.24,25.61-13.82-5.83-41.42,31.44-48.74-34.91-1.66-15.06-47.08-19.85,6.51-60.52,12.16-9.23-5.65-51.29,55.25-25.6,13.83,5.83,41.42-31.43,48.74,34.92,1.66,15.06C326.51,519.25,272.92,559.91,267.26,508.62Z"/><path class="cls-41" d="M267.22,508.24c5.51,50-53.82,24.94-13.47-5.68-40.35,30.62-47.48-34-1.61-14.68-45.87-19.34,6.34-59,11.85-9-5.51-50,53.82-24.95,13.47,5.68,40.35-30.63,47.48,34,1.61,14.67C324.94,518.58,272.73,558.2,267.22,508.24Z"/><path class="cls-42" d="M267.18,507.85c5.36,48.64-52.4,24.28-13.11-5.53-39.29,29.81-46.23-33.12-1.58-14.29-44.65-18.83,6.18-57.4,11.54-8.75-5.36-48.65,52.4-24.29,13.11,5.53,39.29-29.82,46.23,33.11,1.58,14.28C323.37,517.92,272.54,556.49,267.18,507.85Z"/><path class="cls-43" d="M267.14,507.46c5.21,47.32-51,23.63-12.76-5.38-38.22,29-45-32.22-1.53-13.9-43.44-18.32,6-55.84,11.22-8.51-5.22-47.33,51-23.63,12.76,5.37,38.22-29,45,32.22,1.53,13.9C321.8,517.26,272.35,554.78,267.14,507.46Z"/><path class="cls-44" d="M227.61,583.43c48.95-115.77,65.18-92.88-56.32-79.42,121.5-13.46,110.55,12.45,38-89.87,72.55,102.32,45.36,105.33,94.31-10.44-49,115.77-65.18,92.87,56.32,79.42-121.5,13.45-110.55-12.45-38,89.86C249.37,470.67,276.56,467.66,227.61,583.43Z"/><path class="cls-45" d="M288.16,521.3c-13.21-17.38-26.93-15.9-35.27,3.82,8.34-19.72-.07-30.78-21.62-28.45,21.55-2.33,26.86-14.88,13.64-32.26,13.22,17.38,26.93,15.89,35.27-3.83-8.34,19.72.07,30.79,21.63,28.45C280.25,491.37,275,503.92,288.16,521.3Z"/><path class="cls-1" d="M493.19,218.48c20.26,165.57-181.28,80.82-45.75-19.24C311.91,299.3,285.69,85.11,441.49,150.62c-155.8-65.51,19.53-195,39.8-29.39C461-44.34,662.57,40.41,527,140.47c135.53-100.06,161.74,114.13,6,48.62C688.78,254.6,513.45,384.05,493.19,218.48Z"/><path class="cls-2" d="M493,217c19.63,160.61-175.88,78.43-44.38-18.65-131.5,97.08-156.9-110.69-5.76-47.17-151.14-63.52,19-189.12,38.61-28.51-19.63-160.61,175.89-78.43,44.38,18.66,131.51-97.09,156.9,110.68,5.77,47.16C682.75,252,512.63,377.63,493,217Z"/><path class="cls-3" d="M492.82,215.56c19,155.65-170.49,76.05-43-18.07-127.47,94.12-152-107.24-5.57-45.7C297.76,90.25,462.66-31.5,481.66,124.15c-19-155.65,170.48-76,43,18.07,127.47-94.11,152.05,107.24,5.58,45.71C676.72,249.46,511.81,371.21,492.82,215.56Z"/><path class="cls-4" d="M492.63,214.1C511,364.79,327.54,287.76,451,196.62c-123.45,91.14-147.2-103.79-5.4-44.25-141.8-59.54,17.89-177.45,36.25-26.76C463.48-25.08,646.93,52,523.49,143.09c123.44-91.14,147.2,103.8,5.39,44.25C670.69,246.89,511,364.79,492.63,214.1Z"/><path class="cls-5" d="M492.44,212.65c17.73,145.72-159.69,71.26-40.27-16.9C332.75,283.91,309.82,95.4,447,153,309.82,95.4,464.3-18.66,482,127.06,464.3-18.66,641.72,55.8,522.3,144c119.42-88.17,142.35,100.34,5.21,42.79C664.65,244.31,510.17,358.37,492.44,212.65Z"/><path class="cls-6" d="M492.26,211.19C509.35,352,338,280.06,453.35,194.87c-115.38,85.19-137.5-96.9-5-41.33-132.48-55.57,16.79-165.78,33.89-25-17.1-140.76,154.29-68.87,38.9,16.32,115.39-85.19,137.5,96.9,5,41.33C658.62,241.74,509.35,352,492.26,211.19Z"/><path class="cls-7" d="M492.07,209.73c16.46,135.8-148.89,66.48-37.53-15.73-111.36,82.21-132.66-93.46-4.84-39.88C321.88,100.54,465.94-5.81,482.4,130,465.94-5.81,631.3,63.5,519.94,145.71c111.36-82.21,132.65,93.46,4.83,39.88C652.59,239.17,508.53,345.53,492.07,209.73Z"/><path class="cls-8" d="M491.88,208.27c15.83,130.84-143.49,64.1-36.16-15.15-107.33,79.25-127.8-90-4.65-38.41C327.92,103.12,466.76.61,482.59,131.44,466.76.61,626.08,67.35,518.75,146.59c107.33-79.24,127.81,90,4.65,38.42C646.56,236.59,507.71,339.11,491.88,208.27Z"/><path class="cls-9" d="M491.7,206.82c15.19,125.86-138.1,61.7-34.8-14.57-103.3,76.27-122.95-86.56-4.46-37C334,105.69,467.58,7,482.78,132.89,467.58,7,620.87,71.19,517.57,147.46c103.3-76.27,123,86.56,4.46,37C640.53,234,506.89,332.68,491.7,206.82Z"/><path class="cls-10" d="M491.51,205.36c14.56,120.9-132.7,59.31-33.42-14-99.28,73.29-118.11-83.12-4.28-35.51C340,108.26,468.4,13.45,483,134.35c-14.56-120.9,132.7-59.31,33.43,14,99.27-73.29,118.1,83.12,4.27,35.51C634.49,231.45,506.07,326.26,491.51,205.36Z"/><path class="cls-11" d="M491.33,203.9c13.92,115.94-127.3,56.92-32.06-13.4-95.24,70.32-113.26-79.66-4.09-34-109.17-45.62,14-136.59,28-20.65-13.93-115.94,127.3-56.92,32.05,13.4,95.25-70.32,113.26,79.67,4.09,34C628.46,228.88,505.25,319.84,491.33,203.9Z"/><path class="cls-12" d="M491.14,202.44c13.29,111-121.9,54.53-30.69-12.81C369.24,257,352,113.41,456.55,157,352,113.41,470,26.29,483.33,137.27,470,26.29,605.24,82.74,514,150.08c91.22-67.34,108.41,76.22,3.9,32.59C622.43,226.3,504.43,313.42,491.14,202.44Z"/><path class="cls-13" d="M491,201c12.66,106-116.5,52.14-29.32-12.23-87.18,64.37-103.55-72.78-3.71-31.13-99.84-41.65,12.94-124.92,25.6-18.91C470.86,32.71,600,86.59,512.84,151c87.18-64.36,103.56,72.78,3.72,31.13C616.4,223.73,503.61,307,491,201Z"/><path class="cls-14" d="M490.77,199.53c12,101-111.11,49.75-27.95-11.65-83.16,61.4-98.71-69.33-3.53-29.67-95.18-39.66,12.39-119.08,24.42-18-12-101.05,111.1-49.75,28,11.65,83.15-61.4,98.71,69.33,3.53,29.67C610.37,221.16,502.79,300.58,490.77,199.53Z"/><path class="cls-15" d="M490.58,198.07C502,294.16,384.87,245.43,464,187c-79.13,58.42-93.86-65.88-3.34-28.22-90.52-37.66,11.84-113.24,23.23-17.15C472.5,45.55,589.6,94.28,510.47,152.7c79.13-58.42,93.86,65.89,3.35,28.22C604.33,218.59,502,294.16,490.58,198.07Z"/><path class="cls-16" d="M490.4,196.61c10.75,91.13-100.31,45-25.22-10.47-75.09,55.44-89-62.44-3.15-26.76C376.17,123.7,473.32,52,484.08,143.1c-10.76-91.13,100.31-45,25.21,10.47,75.1-55.44,89,62.44,3.16,26.76C598.3,216,501.15,287.74,490.4,196.61Z"/><path class="cls-17" d="M490.21,195.16c10.12,86.16-94.91,42.57-23.84-9.9-71.07,52.47-84.17-59-3-25.3-81.19-33.69,10.75-101.57,20.87-15.41-10.12-86.16,94.92-42.57,23.85,9.9,71.07-52.47,84.16,59,3,25.3C592.27,213.44,500.33,281.32,490.21,195.16Z"/><path class="cls-18" d="M490,193.7c9.49,81.2-89.51,40.19-22.47-9.31-67,49.5-79.31-55.55-2.79-23.84C388.24,128.84,475,64.81,484.45,146c-9.49-81.2,89.51-40.18,22.47,9.31,67-49.49,79.32,55.55,2.79,23.84C586.24,210.87,499.51,274.9,490,193.7Z"/><path class="cls-19" d="M489.84,192.24c8.85,76.24-84.12,37.8-21.11-8.72-63,46.52-74.46-52.1-2.6-22.39-71.86-29.71,9.65-89.9,18.51-13.66-8.86-76.24,84.11-37.8,21.1,8.72,63-46.52,74.47,52.1,2.6,22.39C580.21,208.29,498.69,268.48,489.84,192.24Z"/><path class="cls-20" d="M489.65,190.78c8.22,71.28-78.72,35.41-19.73-8.14-59,43.55-69.62-48.65-2.42-20.93-67.2-27.72,9.1-84.05,17.32-12.78-8.22-71.27,78.72-35.41,19.74,8.14,59-43.55,69.61,48.65,2.41,20.93C574.17,205.72,497.87,262.06,489.65,190.78Z"/><path class="cls-21" d="M489.46,189.33c7.59,66.3-73.31,33-18.36-7.56-55,40.57-64.77-45.21-2.23-19.47-62.54-25.74,8.55-78.22,16.14-11.92-7.59-66.3,73.32-33,18.36,7.56,55-40.57,64.77,45.21,2.23,19.47C568.14,203.15,497.05,255.63,489.46,189.33Z"/><path class="cls-22" d="M489.28,187.87c7,61.34-67.92,30.62-17-7-50.92,37.59-59.92-41.76-2-18-57.88-23.74,8-72.38,15-11-7-61.34,67.92-30.62,17,7,50.93-37.6,59.92,41.76,2,18C562.11,200.58,496.23,249.21,489.28,187.87Z"/><path class="cls-23" d="M489.24,187.55c6.83,60.27-66.72,30.09-16.69-6.85-50,36.94-58.87-41-2-17.69-56.86-23.33,7.86-71.12,14.69-10.85C478.4,91.89,552,122.07,501.93,159c50-36.94,58.86,41,2,17.7C560.79,200,496.07,247.82,489.24,187.55Z"/><path class="cls-24" d="M489.21,187.24c6.7,59.18-65.53,29.54-16.4-6.73-49.13,36.27-57.81-40.29-2-17.38-55.84-22.91,7.72-69.84,14.43-10.65-6.71-59.19,65.53-29.55,16.39,6.72,49.14-36.27,57.81,40.29,2,17.38C559.47,199.49,495.91,246.42,489.21,187.24Z"/><path class="cls-25" d="M489.17,186.92c6.59,58.1-64.33,29-16.1-6.61-48.23,35.62-56.75-39.55-1.93-17.06-54.82-22.49,7.58-68.56,14.16-10.46-6.58-58.1,64.34-29,16.1,6.61,48.24-35.61,56.76,39.55,1.94,17.06C558.16,199,495.76,245,489.17,186.92Z"/><path class="cls-26" d="M489.13,186.6c6.47,57-63.14,28.47-15.79-6.48-47.35,34.95-55.71-38.82-1.9-16.75-53.81-22.07,7.44-67.29,13.9-10.26-6.46-57,63.14-28.47,15.8,6.48,47.34-34.95,55.7,38.82,1.9,16.75C556.84,198.41,495.6,243.63,489.13,186.6Z"/><path class="cls-27" d="M489.1,186.28c6.34,55.95-62,27.93-15.5-6.36-46.45,34.29-54.65-38.08-1.86-16.42-52.79-21.66,7.29-66,13.63-10.07-6.34-55.95,62-27.93,15.51,6.36,46.44-34.29,54.64,38.08,1.86,16.43C555.52,197.87,495.44,242.23,489.1,186.28Z"/><path class="cls-28" d="M489.06,186c6.22,54.86-60.75,27.39-15.2-6.24-45.55,33.63-53.59-37.35-1.82-16.11-51.77-21.24,7.15-64.74,13.37-9.88-6.22-54.86,60.75-27.39,15.2,6.24,45.55-33.63,53.59,37.35,1.83,16.11C554.2,197.33,495.28,240.83,489.06,186Z"/><path class="cls-29" d="M489,185.65c6.09,53.79-59.56,26.85-14.91-6.11-44.65,33-52.53-36.62-1.79-15.8-50.74-20.82,7-63.47,13.12-9.68-6.1-53.79,59.55-26.85,14.9,6.12,44.65-33,52.54,36.61,1.79,15.79C552.89,196.79,495.12,239.44,489,185.65Z"/><path class="cls-30" d="M489,185.33c6,52.71-58.36,26.32-14.6-6-43.76,32.31-51.48-35.88-1.76-15.48-49.72-20.4,6.88-62.19,12.85-9.48-6-52.71,58.36-26.32,14.61,6,43.75-32.31,51.48,35.88,1.75,15.48C551.57,196.25,495,238,489,185.33Z"/><path class="cls-31" d="M489,185c5.86,51.62-57.16,25.77-14.3-5.87C431.79,210.79,424.22,144,472.93,164c-48.71-20,6.74-60.92,12.59-9.29-5.85-51.63,57.16-25.78,14.3,5.86,42.86-31.64,50.43,35.15,1.72,15.16C550.25,195.71,494.81,236.64,489,185Z"/><path class="cls-32" d="M488.92,184.7c5.73,50.55-56,25.23-14-5.75-42,31-49.37-34.41-1.68-14.84-47.69-19.57,6.6-59.65,12.32-9.1-5.72-50.55,56-25.23,14,5.75,42-31,49.37,34.41,1.68,14.84C548.93,195.17,494.65,235.25,488.92,184.7Z"/><path class="cls-33" d="M488.88,184.38c5.61,49.47-54.77,24.7-13.7-5.62-41.07,30.32-48.32-33.68-1.65-14.53-46.67-19.15,6.45-58.37,12.06-8.9-5.61-49.47,54.77-24.7,13.71,5.62,41.06-30.32,48.32,33.68,1.64,14.53C547.62,194.63,494.49,233.85,488.88,184.38Z"/><path class="cls-34" d="M488.85,184.07c5.48,48.38-53.58,24.15-13.41-5.51-40.17,29.66-47.26-32.94-1.61-14.2-45.65-18.74,6.31-57.1,11.8-8.71-5.49-48.39,53.57-24.16,13.4,5.5,40.17-29.66,47.27,32.94,1.61,14.21C546.3,194.09,494.33,232.45,488.85,184.07Z"/><path class="cls-35" d="M488.81,183.75c5.36,47.31-52.38,23.62-13.11-5.38-39.27,29-46.21-32.21-1.57-13.89-44.64-18.32,6.17-55.83,11.53-8.52-5.36-47.31,52.38-23.62,13.11,5.38,39.27-29,46.21,32.21,1.57,13.89C545,193.55,494.17,231.06,488.81,183.75Z"/><path class="cls-36" d="M488.78,183.43c5.23,46.23-51.19,23.08-12.81-5.25-38.38,28.33-45.16-31.48-1.54-13.58-43.62-17.9,6-54.55,11.27-8.32-5.24-46.23,51.18-23.08,12.81,5.26,38.37-28.34,45.15,31.47,1.54,13.57C543.66,193,494,229.66,488.78,183.43Z"/><path class="cls-37" d="M488.74,183.11c5.12,45.15-50,22.54-12.51-5.13-37.48,27.67-44.1-30.73-1.5-13.26-42.6-17.47,5.89-53.27,11-8.12-5.11-45.15,50-22.54,12.51,5.13,37.49-27.67,44.1,30.74,1.51,13.26C542.34,192.47,493.86,228.26,488.74,183.11Z"/><path class="cls-38" d="M488.7,182.8c5,44.07-48.79,22-12.21-5-36.58,27-43-30-1.46-12.94-41.58-17.06,5.75-52,10.74-7.94-5-44.07,48.8-22,12.21,5,36.59-27,43,30,1.47,13C541,191.93,493.7,226.87,488.7,182.8Z"/><path class="cls-39" d="M488.67,182.48c4.87,43-47.6,21.46-11.91-4.89-35.69,26.35-42-29.26-1.43-12.62-40.57-16.64,5.6-50.73,10.48-7.74-4.88-43,47.6-21.46,11.91,4.89,35.69-26.35,42,29.26,1.43,12.62C539.71,191.38,493.54,225.47,488.67,182.48Z"/><path class="cls-40" d="M488.63,182.16c4.75,41.91-46.4,20.93-11.61-4.76-34.79,25.69-40.94-28.53-1.4-12.31-39.54-16.22,5.47-49.45,10.22-7.54-4.75-41.91,46.41-20.93,11.61,4.76,34.8-25.69,40.94,28.53,1.4,12.31C538.39,190.84,493.38,224.07,488.63,182.16Z"/><path class="cls-41" d="M488.6,181.85c4.62,40.83-45.21,20.38-11.32-4.65-33.89,25-39.88-27.79-1.36-12-38.52-15.8,5.33-48.18,10-7.34-4.63-40.84,45.21-20.39,11.31,4.64,33.9-25,39.88,27.79,1.36,12C537.07,190.3,493.22,222.68,488.6,181.85Z"/><path class="cls-42" d="M488.56,181.53c4.5,39.75-44,19.84-11-4.52-33,24.36-38.83-27.06-1.33-11.67-37.5-15.39,5.19-46.91,9.69-7.16-4.5-39.75,44-19.84,11,4.52,33-24.36,38.83,27.06,1.32,11.67C535.76,189.76,493.06,221.28,488.56,181.53Z"/><path class="cls-43" d="M488.52,181.21c4.39,38.67-42.82,19.31-10.71-4.39-32.11,23.7-37.77-26.33-1.29-11.36-36.48-15,5.05-45.63,9.43-7-4.38-38.67,42.82-19.31,10.71,4.4,32.11-23.71,37.78,26.32,1.29,11.35C534.44,189.22,492.91,219.88,488.52,181.21Z"/><path class="cls-44" d="M455.32,243.29c41.12-94.6,54.75-75.9-47.3-64.9,102.05-11,92.85,10.17,31.92-73.43,60.93,83.6,38.1,86.06,79.21-8.54-41.11,94.6-54.75,75.9,47.3,64.9-102.05,11-92.85-10.17-31.91,73.44C473.6,151.15,496.44,148.69,455.32,243.29Z"/><path class="cls-45" d="M506.18,192.52c-11.1-14.2-22.62-13-29.62,3.13,7-16.12-.06-25.16-18.16-23.25,18.1-1.91,22.56-12.16,11.46-26.37,11.1,14.21,22.62,13,29.62-3.12-7,16.11.06,25.15,18.16,23.24C499.54,168.06,495.08,178.32,506.18,192.52Z"/></svg>
