<svg id="Layer_1" data-name="Layer 1" xmlns="http://www.w3.org/2000/svg" width="100mm" height="90mm" viewBox="0 0 283.46 255.12"><defs><style>.cls-1,.cls-4,.cls-7{fill:#ebebec;}.cls-1{stroke:#010102;}.cls-1,.cls-2,.cls-3,.cls-4,.cls-5{stroke-miterlimit:10;stroke-width:0.5px;}.cls-2{fill:#070605;}.cls-2,.cls-3{stroke:#000;}.cls-3{fill:#faf6e1;}.cls-4{stroke:#020304;}.cls-5{fill:#dddee0;stroke:#040507;}.cls-6{fill:#bdbec1;}.cls-8{fill:#b7d6f1;}</style></defs><path class="cls-1" d="M267.33,24.67v163.9a12,12,0,0,1-12,12H32.47a12,12,0,0,1-12-12V24.67a4.31,4.31,0,0,1,4.28-4.28H263A4.31,4.31,0,0,1,267.33,24.67Z"/><path class="cls-2" d="M267.33,24.68h0V177.77a0,0,0,0,1,0,0H20.5l0,0V24.68h0a4.29,4.29,0,0,1,4.29-4.29H263A4.3,4.3,0,0,1,267.33,24.68Z"/><rect class="cls-3" x="29.47" y="29.49" width="228.87" height="137.8"/><path class="cls-4" d="M172,233.23H124.39a10.62,10.62,0,0,1-4.38-.51l2.32-30.2a2,2,0,0,1,2.06-1.94H172a2,2,0,0,1,2.06,1.94l2.61,30.17C176.39,233.38,173.31,233.12,172,233.23Z"/><rect class="cls-5" x="113.54" y="233.25" width="68.66" height="5.69"/><circle class="cls-6" cx="149.47" cy="191.13" r="5.57"/><rect class="cls-7" x="74.92" y="55.07" width="123.45" height="86.65"/><rect class="cls-8" x="74.92" y="55.07" width="123.45" height="8.7"/><rect class="cls-7" x="205.47" y="55.07" width="36.95" height="26.4"/><rect class="cls-8" x="205.47" y="55.07" width="36.95" height="2.65"/><rect class="cls-7" x="205.47" y="85.19" width="36.95" height="26.4"/><rect class="cls-8" x="205.47" y="85.19" width="36.95" height="2.65"/><rect class="cls-7" x="205.47" y="115.31" width="36.95" height="26.4"/><rect class="cls-8" x="205.47" y="115.31" width="36.95" height="2.65"/><rect class="cls-8" x="56.11" y="55.44" width="8.7" height="8.7"/><rect class="cls-8" x="42.7" y="55.44" width="8.7" height="8.7"/><rect class="cls-8" x="56.11" y="66.6" width="8.7" height="8.7"/><rect class="cls-8" x="42.7" y="66.6" width="8.7" height="8.7"/><rect class="cls-8" x="56.11" y="77.81" width="8.7" height="8.7"/><rect class="cls-8" x="42.7" y="77.81" width="8.7" height="8.7"/><rect class="cls-8" x="56.11" y="89.02" width="8.7" height="8.7"/><rect class="cls-8" x="42.7" y="89.02" width="8.7" height="8.7"/><rect class="cls-8" x="56.11" y="101.11" width="8.7" height="8.7"/><rect class="cls-8" x="42.7" y="101.11" width="8.7" height="8.7"/><rect class="cls-8" x="56.11" y="112.28" width="8.7" height="8.7"/><rect class="cls-8" x="42.7" y="112.28" width="8.7" height="8.7"/><rect class="cls-8" x="56.11" y="123.49" width="8.7" height="8.7"/><rect class="cls-8" x="42.7" y="123.49" width="8.7" height="8.7"/><rect class="cls-8" x="56.11" y="134.7" width="8.7" height="8.7"/><rect class="cls-8" x="42.7" y="134.7" width="8.7" height="8.7"/></svg>