<svg id="Layer_1" data-name="Layer 1" xmlns="http://www.w3.org/2000/svg" width="100mm" height="90mm" viewBox="0 0 283.46 255.12"><defs><style>.cls-1,.cls-4,.cls-7{fill:#ebebec;}.cls-1{stroke:#010102;}.cls-1,.cls-2,.cls-3,.cls-4,.cls-5{stroke-miterlimit:10;stroke-width:0.5px;}.cls-2{fill:#070605;}.cls-2,.cls-3{stroke:#000;}.cls-3{fill:#faf6e1;}.cls-4{stroke:#020304;}.cls-5{fill:#dddee0;stroke:#040507;}.cls-6{fill:#bdbec1;}.cls-8{fill:#b7d6f1;}</style></defs><path class="cls-1" d="M261.76,25.82v163.9a12,12,0,0,1-12,12H26.9a12,12,0,0,1-12-12V25.82a4.3,4.3,0,0,1,4.28-4.27H257.47A4.3,4.3,0,0,1,261.76,25.82Z"/><path class="cls-2" d="M261.76,24.15V176.36a2.59,2.59,0,0,1-2.6,2.59H17.5l-2.6-2.59V24.14a2.59,2.59,0,0,1,2.6-2.59H259.15A2.61,2.61,0,0,1,261.76,24.15Z"/><rect class="cls-3" x="23.9" y="30.64" width="228.87" height="137.8"/><path class="cls-4" d="M166.45,234.38H118.82a10.6,10.6,0,0,1-4.38-.51l2.32-30.19a2,2,0,0,1,2.06-1.94h47.63a2,2,0,0,1,2.06,1.94l2.61,30.16C170.82,234.53,167.74,234.27,166.45,234.38Z"/><rect class="cls-5" x="107.97" y="234.4" width="68.66" height="5.69"/><circle class="cls-6" cx="143.9" cy="192.28" r="5.57"/><rect class="cls-7" x="69.35" y="56.22" width="123.45" height="86.65"/><rect class="cls-8" x="69.35" y="56.22" width="123.45" height="8.7"/><rect class="cls-7" x="199.89" y="56.22" width="36.95" height="26.4"/><rect class="cls-8" x="199.89" y="56.22" width="36.95" height="2.65"/><rect class="cls-7" x="199.89" y="86.34" width="36.95" height="26.4"/><rect class="cls-8" x="199.89" y="86.34" width="36.95" height="2.65"/><rect class="cls-7" x="199.89" y="116.46" width="36.95" height="26.4"/><rect class="cls-8" x="199.89" y="116.46" width="36.95" height="2.65"/><rect class="cls-8" x="50.54" y="56.59" width="8.7" height="8.7"/><rect class="cls-8" x="37.13" y="56.59" width="8.7" height="8.7"/><rect class="cls-8" x="50.54" y="67.75" width="8.7" height="8.7"/><rect class="cls-8" x="37.13" y="67.75" width="8.7" height="8.7"/><rect class="cls-8" x="50.54" y="78.96" width="8.7" height="8.7"/><rect class="cls-8" x="37.13" y="78.96" width="8.7" height="8.7"/><rect class="cls-8" x="50.54" y="90.17" width="8.7" height="8.7"/><rect class="cls-8" x="37.13" y="90.17" width="8.7" height="8.7"/><rect class="cls-8" x="50.54" y="102.27" width="8.7" height="8.7"/><rect class="cls-8" x="37.13" y="102.27" width="8.7" height="8.7"/><rect class="cls-8" x="50.54" y="113.43" width="8.7" height="8.7"/><rect class="cls-8" x="37.13" y="113.43" width="8.7" height="8.7"/><rect class="cls-8" x="50.54" y="124.64" width="8.7" height="8.7"/><rect class="cls-8" x="37.13" y="124.64" width="8.7" height="8.7"/><rect class="cls-8" x="50.54" y="135.85" width="8.7" height="8.7"/><rect class="cls-8" x="37.13" y="135.85" width="8.7" height="8.7"/></svg>