<svg id="Layer_1" data-name="Layer 1" xmlns="http://www.w3.org/2000/svg" width="43.98mm" height="67.82mm" viewBox="0 0 124.66 192.25"><defs><style>.cls-1,.cls-8,.cls-9{fill:#d3ded9;stroke:#060909;}.cls-1,.cls-7{stroke-miterlimit:10;stroke-width:0.25px;}.cls-2{fill:#7a7d7a;}.cls-3{fill:#70ae60;}.cls-4,.cls-7{fill:none;}.cls-5{fill:#7c2555;}.cls-6{fill:#1e1e1c;}.cls-7{stroke:#010101;}.cls-8{stroke-miterlimit:10;stroke-width:0.25px;}.cls-9{stroke-miterlimit:10;stroke-width:0.25px;}</style></defs><path class="cls-1" d="M8.52.13H116.06a8.42,8.42,0,0,1,8.47,8.38V166.2a25.87,25.87,0,0,1-25.75,25.92H8.52a8.42,8.42,0,0,1-8.39-8.45h0V8.61A8.41,8.41,0,0,1,8.49.13Z"/><path class="cls-2" d="M19.88,12.09H105a8.58,8.58,0,0,1,8.55,8.61V77.43a8.67,8.67,0,0,1-8.64,8.7h-86a8.83,8.83,0,0,1-8.8-8.86V22a9.81,9.81,0,0,1,9.7-9.9Z"/><rect class="cls-3" x="28.42" y="19.85" width="69.19" height="58.21"/><line class="cls-4" x1="86.02" y1="45.13" x2="68.38" y2="61.69"/><line class="cls-4" x1="86.27" y1="55.43" x2="72.94" y2="68.05"/><ellipse class="cls-5" cx="79.25" cy="130.75" rx="6.97" ry="7.01"/><ellipse class="cls-5" cx="100.77" cy="123.74" rx="6.97" ry="7.01"/><rect class="cls-6" x="15.75" y="118.03" width="25.34" height="8.91"/><rect class="cls-7" x="15.75" y="118.03" width="25.34" height="8.91"/><rect class="cls-6" x="23.99" y="109.72" width="8.85" height="25.5"/><rect class="cls-7" x="23.99" y="109.72" width="8.85" height="25.5"/><path class="cls-8" d="M57.36,164.52,64,161.6a3,3,0,0,1,3.94,1.54h0a3,3,0,0,1-1.54,4L59.76,170a3,3,0,0,1-3.94-1.54h0A3,3,0,0,1,57.36,164.52Z"/><path class="cls-9" d="M92.85,162.52h0a.72.72,0,0,1,1,.31l8.83,17a.75.75,0,0,1-.31,1h0a.74.74,0,0,1-1-.31l-8.82-17.05A.73.73,0,0,1,92.85,162.52Z"/><path class="cls-9" d="M98.44,159.9h0a.72.72,0,0,1,1,.31l8.87,17.12a.75.75,0,0,1-.31,1h0a.74.74,0,0,1-1-.31l-8.86-17.13A.73.73,0,0,1,98.44,159.9Z"/><path class="cls-9" d="M103.94,156.6h0a.73.73,0,0,1,1,.31L113.81,174a.75.75,0,0,1-.31,1h0a.74.74,0,0,1-1-.31l-8.87-17.14A.74.74,0,0,1,103.94,156.6Z"/><path class="cls-9" d="M86.77,165.23h0a.71.71,0,0,1,1,.31l9,17.42a.72.72,0,0,1-.31,1h0a.72.72,0,0,1-1-.31l-9-17.42A.73.73,0,0,1,86.77,165.23Z"/><path class="cls-9" d="M81,168.13h0a.72.72,0,0,1,1,.31L91,186a.74.74,0,0,1-.31,1h0a.73.73,0,0,1-1-.31l-9.09-17.56A.73.73,0,0,1,81,168.13Z"/><path class="cls-9" d="M109.21,154.1h0a.72.72,0,0,1,1,.31L119,171.33a.74.74,0,0,1-.31,1h0a.72.72,0,0,1-1-.31l-8.76-16.92A.74.74,0,0,1,109.21,154.1Z"/><path class="cls-8" d="M39.57,164.53l6.6-2.92a3,3,0,0,1,3.94,1.54h0a3,3,0,0,1-1.54,4L42,170A3,3,0,0,1,38,168.48h0A3,3,0,0,1,39.57,164.53Z"/></svg>
