<svg id="Layer_1" data-name="Layer 1" xmlns="http://www.w3.org/2000/svg" width="40mm" height="50mm" viewBox="0 0 113.39 141.73"><defs><style>.cls-1,.cls-4{fill:#d3ddd8;}.cls-1{stroke:#040908;}.cls-1,.cls-7{stroke-miterlimit:10;stroke-width:0.25px;}.cls-2{fill:#797c7a;}.cls-3{fill:#6fad60;}.cls-5{fill:#7b2455;}.cls-6{fill:#1d1d1b;}.cls-7{fill:none;stroke:#000;}</style></defs><path class="cls-1" d="M25.78,16.12H88A4.86,4.86,0,0,1,92.9,21v90.59A14.92,14.92,0,0,1,78,126.49H25.78a4.86,4.86,0,0,1-4.86-4.86V21A4.86,4.86,0,0,1,25.78,16.12Z"/><path class="cls-2" d="M32.35,23H81.62A4.95,4.95,0,0,1,86.57,28V60.56a5,5,0,0,1-5,5H31.79a5.09,5.09,0,0,1-5.09-5.09V28.69A5.65,5.65,0,0,1,32.35,23Z"/><rect class="cls-3" x="37.29" y="27.46" width="40.03" height="33.46"/><line class="cls-4" x1="70.62" y1="41.99" x2="60.41" y2="51.51"/><line class="cls-4" x1="70.76" y1="47.91" x2="63.05" y2="55.17"/><circle class="cls-5" cx="66.7" cy="91.21" r="4.03"/><circle class="cls-5" cx="79.15" cy="87.18" r="4.03"/><rect class="cls-6" x="29.96" y="83.9" width="14.66" height="5.12"/><rect class="cls-7" x="29.96" y="83.9" width="14.66" height="5.12"/><rect class="cls-6" x="34.73" y="79.12" width="5.12" height="14.66"/><rect class="cls-7" x="34.73" y="79.12" width="5.12" height="14.66"/><rect class="cls-1" x="52.82" y="109.64" width="7.63" height="3.45" rx="1.73" transform="translate(-39.97 32.14) rotate(-23.69)"/><rect class="cls-1" x="76.89" y="108.81" width="0.85" height="11.89" rx="0.42" transform="translate(-44.27 48.7) rotate(-27.52)"/><rect class="cls-1" x="80.14" y="107.3" width="0.85" height="11.94" rx="0.42" transform="translate(-43.22 50.03) rotate(-27.52)"/><rect class="cls-1" x="83.32" y="105.4" width="0.85" height="11.95" rx="0.42" transform="translate(-41.98 51.29) rotate(-27.52)"/><rect class="cls-1" x="73.43" y="110.35" width="0.85" height="12.13" rx="0.42" transform="translate(-45.43 47.29) rotate(-27.52)"/><rect class="cls-1" x="70.08" y="112.01" width="0.85" height="12.22" rx="0.42" transform="translate(-46.59 45.94) rotate(-27.52)"/><rect class="cls-1" x="86.34" y="103.98" width="0.85" height="11.81" rx="0.42" transform="translate(-40.95 52.51) rotate(-27.52)"/><rect class="cls-1" x="42.53" y="109.64" width="7.63" height="3.45" rx="1.73" transform="translate(-40.84 28.01) rotate(-23.69)"/></svg>
