<svg id="Layer_1" data-name="Layer 1" xmlns="http://www.w3.org/2000/svg" width="45mm" height="55mm" viewBox="0 0 127.56 155.91"><defs><style>.cls-1,.cls-8,.cls-9{fill:none;}.cls-1,.cls-9{stroke:#000;}.cls-1,.cls-10,.cls-2,.cls-4,.cls-5,.cls-7,.cls-8,.cls-9{stroke-miterlimit:10;}.cls-1{stroke-width:4px;}.cls-10,.cls-2{fill:#faf7f5;}.cls-10,.cls-2,.cls-4,.cls-5,.cls-7,.cls-8{stroke:#1d1d1b;}.cls-2,.cls-4{stroke-width:0.5px;}.cls-3{fill:#1d1d1b;}.cls-4,.cls-7{fill:#fff;}.cls-5{fill:#010101;}.cls-10,.cls-5,.cls-7,.cls-8,.cls-9{stroke-width:0.25px;}.cls-6{fill:#fdfbfc;}</style></defs><path class="cls-1" d="M89.77,36.21c3.25-1.41,6.89-.41,9.85,1.85s5.34,5.69,7.44,9.29c4,6.83,7.23,15.2,6.41,23.78-.59,6.14-3.2,11.62-4.2,17.66-1.24,7.49,0,15.25.8,22.85s.89,15.89-2.28,22.28c-2.69,5.42-7.33,8.54-12,10.43-10.48,4.27-21.89,3.44-32.39-.75S43.28,132,34.47,123.29c-4.65-4.6-9.2-9.73-12.1-16.43C19,99,18.1,89.4,19,80.36a103.54,103.54,0,0,1,6.56-25.8"/><rect class="cls-2" x="15.48" y="16.74" width="86.25" height="54.21" rx="6.37"/><rect class="cls-3" x="14.95" y="65.42" width="87.31" height="5.98" rx="1.62"/><path class="cls-3" d="M99.33,33h-28c-7,0-49.2.44-53.46,0a3.37,3.37,0,0,1-2.08-.87A2.92,2.92,0,0,1,15,30.07V19.15a2.94,2.94,0,0,1,2.94-2.94H99.33a2.94,2.94,0,0,1,2.94,2.94V30.07A3,3,0,0,1,99.33,33Z"/><ellipse class="cls-4" cx="58.6" cy="47.75" rx="25.17" ry="24.45"/><circle class="cls-5" cx="58.6" cy="47.75" r="17.02"/><circle class="cls-6" cx="58.6" cy="47.86" r="12.13"/><rect class="cls-7" x="80.22" y="19.44" width="14.63" height="7.19" rx="3.6"/><rect class="cls-7" x="33.64" y="11.62" width="12.13" height="4.59" rx="0.33"/><rect class="cls-3" x="88.34" y="37.54" width="6.5" height="3.17" rx="1.59"/><path class="cls-5" d="M64.77,42.7a1.27,1.27,0,0,1,.1.12,5.19,5.19,0,0,0-4.16,1.29,5.09,5.09,0,0,0-.48,7.19,5,5,0,0,0,4.61,1.57c-.19.21-.39.41-.6.61a7.69,7.69,0,1,1,.53-10.78Z"/><line class="cls-8" x1="34.44" y1="11.62" x2="34.4" y2="16.36"/><line class="cls-8" x1="36.54" y1="11.55" x2="36.49" y2="16.29"/><line class="cls-8" x1="35.49" y1="11.62" x2="35.45" y2="16.36"/><line class="cls-8" x1="37.62" y1="11.55" x2="37.57" y2="16.29"/><line class="cls-8" x1="38.61" y1="11.66" x2="38.57" y2="16.4"/><line class="cls-8" x1="39.73" y1="11.62" x2="39.69" y2="16.36"/><line class="cls-8" x1="42.89" y1="11.68" x2="42.85" y2="16.42"/><line class="cls-8" x1="40.81" y1="11.68" x2="40.77" y2="16.42"/><line class="cls-8" x1="41.86" y1="11.58" x2="41.82" y2="16.32"/><line class="cls-8" x1="43.9" y1="11.66" x2="43.85" y2="16.4"/><line class="cls-8" x1="44.79" y1="11.66" x2="44.75" y2="16.4"/><path class="cls-9" d="M68.55,26.63A26.87,26.87,0,0,1,79.69,37.86a29.39,29.39,0,0,1,1.88,4.49"/><path class="cls-7" d="M70.13,29.28a27.32,27.32,0,0,1,7.73,8,25.16,25.16,0,0,1,1.64,3.08"/><path class="cls-10" d="M71,31.37a21.65,21.65,0,0,1,5.55,6.57,21.13,21.13,0,0,1,1.34,3"/><path class="cls-8" d="M71.87,34.4a11.78,11.78,0,0,1,3.66,4.23,11.44,11.44,0,0,1,.6,1.39"/></svg>
