<svg id="Layer_1" data-name="Layer 1" xmlns="http://www.w3.org/2000/svg" width="70mm" height="80mm" viewBox="0 0 198.43 226.77"><defs><style>.cls-1,.cls-8,.cls-9{fill:none;}.cls-1,.cls-9{stroke:#000;}.cls-1,.cls-10,.cls-2,.cls-4,.cls-5,.cls-7,.cls-8,.cls-9{stroke-miterlimit:10;}.cls-1{stroke-width:4px;}.cls-10,.cls-2{fill:#faf7f5;}.cls-10,.cls-2,.cls-4,.cls-5,.cls-7,.cls-8{stroke:#1d1d1b;}.cls-2,.cls-4{stroke-width:0.5px;}.cls-3{fill:#1d1d1b;}.cls-4,.cls-7{fill:#fff;}.cls-5{fill:#010101;}.cls-10,.cls-5,.cls-7,.cls-8,.cls-9{stroke-width:0.25px;}.cls-6{fill:#fdfbfc;}</style></defs><path class="cls-1" d="M152.34,51.15c5.6-2.18,11.87-.63,17,2.87s9.2,8.78,12.82,14.34c6.85,10.55,12.46,23.47,11,36.72-1,9.48-5.5,17.94-7.23,27.28-2.15,11.56.07,23.54,1.38,35.27s1.53,24.55-3.94,34.42c-4.64,8.36-12.63,13.17-20.65,16.1-18.07,6.6-37.75,5.32-55.84-1.15S72.19,199.06,57,185.62c-8-7.1-15.87-15-20.87-25.36-5.9-12.19-7.35-27-5.77-40.93s6-27.24,11.31-39.84"/><rect class="cls-2" x="24.25" y="21.1" width="148.7" height="83.71" rx="6.37"/><rect class="cls-3" x="23.34" y="96.27" width="150.53" height="9.24" rx="1.62"/><path class="cls-3" d="M168.82,46.21H120.58c-12.13,0-84.83.68-92.18,0a6.12,6.12,0,0,1-3.58-1.33,4.34,4.34,0,0,1-1.48-3.21V24.81a4.84,4.84,0,0,1,5.06-4.54H168.82a4.84,4.84,0,0,1,5.07,4.54V41.67A4.84,4.84,0,0,1,168.82,46.21Z"/><ellipse class="cls-4" cx="98.6" cy="68.97" rx="43.4" ry="37.75"/><ellipse class="cls-5" cx="98.6" cy="68.97" rx="29.35" ry="26.29"/><ellipse class="cls-6" cx="98.6" cy="69.15" rx="20.91" ry="18.73"/><rect class="cls-7" x="135.87" y="25.26" width="25.22" height="11.1" rx="3.6"/><rect class="cls-7" x="55.57" y="13.19" width="20.91" height="7.08" rx="0.33"/><rect class="cls-3" x="149.88" y="53.21" width="11.21" height="4.9" rx="1.59"/><path class="cls-5" d="M109.23,61.17l.18.19a9.69,9.69,0,0,0-7.17,2,7.32,7.32,0,0,0-.84,11.11,9.23,9.23,0,0,0,7.95,2.43,13.46,13.46,0,0,1-1,.93,14.25,14.25,0,0,1-18.57-1,11,11,0,0,1,.91-16.65A14.26,14.26,0,0,1,109.23,61.17Z"/><line class="cls-8" x1="56.95" y1="13.19" x2="56.88" y2="20.51"/><line class="cls-8" x1="60.55" y1="13.07" x2="60.48" y2="20.39"/><line class="cls-8" x1="58.76" y1="13.19" x2="58.69" y2="20.51"/><line class="cls-8" x1="62.42" y1="13.07" x2="62.35" y2="20.39"/><line class="cls-8" x1="64.14" y1="13.25" x2="64.06" y2="20.56"/><line class="cls-8" x1="66.06" y1="13.19" x2="65.98" y2="20.51"/><line class="cls-8" x1="71.51" y1="13.28" x2="71.44" y2="20.59"/><line class="cls-8" x1="67.92" y1="13.28" x2="67.85" y2="20.59"/><line class="cls-8" x1="69.74" y1="13.13" x2="69.67" y2="20.45"/><line class="cls-8" x1="73.24" y1="13.25" x2="73.17" y2="20.56"/><line class="cls-8" x1="74.79" y1="13.25" x2="74.72" y2="20.56"/><path class="cls-9" d="M115.75,36.36A44.49,44.49,0,0,1,135,53.7a42.35,42.35,0,0,1,3.26,6.94"/><path class="cls-7" d="M118.48,40.46a44.52,44.52,0,0,1,13.33,12.38,36.43,36.43,0,0,1,2.82,4.75"/><path class="cls-10" d="M119.92,43.68a34.86,34.86,0,0,1,9.57,10.15,30.64,30.64,0,0,1,2.31,4.63"/><path class="cls-8" d="M121.48,48.36a19.12,19.12,0,0,1,6.31,6.53,16.67,16.67,0,0,1,1,2.15"/></svg>
