<svg id="Layer_1" data-name="Layer 1" xmlns="http://www.w3.org/2000/svg" width="60mm" height="60mm" viewBox="0 0 170.08 170.08"><defs><style>.cls-1{fill:#d3bede;}</style></defs><path class="cls-1" d="M57.66,14.24,82.23,159.43h49.55l-.63-84.39,8.37,6.64,27.56-26.23L134,23.22l-22.35-9-.82-.33-7.49-3c-.78,5-9.16,7.87-18.57,8.63-10.5.85-22.28-1-26.26-5.61Z"/><path class="cls-1" d="M111.6,14.24,87.08,159.43H82.23l-44.7,0,.59-84.39L29.76,81.7,2.2,55.48,35.32,23.23l22.34-9,.8-.33,7.51-3c.78,5,9.26,7.89,18.74,8.63h0c10.43.81,22.09-1,26.06-5.61Z"/></svg>
