<svg id="Layer_1" data-name="Layer 1" xmlns="http://www.w3.org/2000/svg" width="100mm" height="90mm" viewBox="0 0 283.46 255.12"><defs><style>.cls-1{fill:#d3bede;}</style></defs><path class="cls-1" d="M96.62,13.6l41.14,237a1,1,0,0,0,1,.85h81.66a1,1,0,0,0,1-1l-1-135.58a1,1,0,0,1,1.66-.82l11.75,9.09a1,1,0,0,0,1.33-.06l45-41.79a1,1,0,0,0,0-1.49l-46.64-44.3a59,59,0,0,0-19.07-12.14l-27-10.59-1.38-.54L174.6,7.68a1,1,0,0,0-1.35.66c-2.32,7.55-15.9,11.91-31.06,13.1-17.32,1.37-36.69-1.51-43.82-8.72a1,1,0,0,0-1.1-.26h0A1,1,0,0,0,96.62,13.6Z"/><path class="cls-1" d="M187.43,12.76,146.08,251.44H62.52l1-138.73-14.1,11L2.94,80.56,49.21,36.65A67.67,67.67,0,0,1,71.1,22.71l25.37-10,1.35-.54,12.66-4.94c1.32,8.22,15.62,13,31.61,14.19h0c17.59,1.33,37.25-1.64,43.94-9.22Z"/></svg>
